<?xml version="1.0" encoding="utf-8"?>
<!-- Generator: Adobe Illustrator 16.0.0, SVG Export Plug-In . SVG Version: 6.00 Build 0)  -->
<!DOCTYPE svg PUBLIC "-//W3C//DTD SVG 1.1//EN" "http://www.w3.org/Graphics/SVG/1.1/DTD/svg11.dtd">
<svg version="1.1" id="Layer_1" xmlns="http://www.w3.org/2000/svg" xmlns:xlink="http://www.w3.org/1999/xlink" x="0px" y="0px"
	 width="48px" height="48px" viewBox="0 0 48 48" enable-background="new 0 0 48 48" xml:space="preserve">
<rect x="15.377" y="8.375" fill="#333333" stroke="#FFFFFF" stroke-miterlimit="10" width="16.125" height="31.25"/>
<path fill="#333333" stroke="#333333" stroke-miterlimit="10" d="M14.513,16.652v1.753H9.89v12.963H8.013V18.405H3.39v-1.753H14.513
	z"/>
<path fill="#FFFFFF" stroke="#FFFFFF" stroke-miterlimit="10" d="M27.801,17.72c0.947,0.981,1.473,2.097,1.578,3.346h-1.812
	c-0.201-0.948-0.604-1.7-1.205-2.254c-0.604-0.554-1.446-0.832-2.536-0.832c-1.326,0-2.398,0.51-3.214,1.529
	s-1.225,2.582-1.225,4.688c0,1.726,0.369,3.123,1.105,4.197c0.737,1.072,1.836,1.608,3.298,1.608c1.346,0,2.371-0.563,3.074-1.692
	c0.373-0.596,0.65-1.377,0.834-2.346h1.812c-0.159,1.55-0.688,2.85-1.588,3.896c-1.078,1.264-2.528,1.895-4.357,1.895
	c-1.576,0-2.899-0.518-3.97-1.555c-1.409-1.369-2.114-3.484-2.114-6.346c0-2.171,0.529-3.954,1.588-5.344
	c1.145-1.51,2.723-2.266,4.734-2.266C25.52,16.247,26.854,16.738,27.801,17.72z"/>
<path fill="#333333" stroke="#333333" stroke-miterlimit="10" d="M41.917,17.068c1.345,0.768,2.167,2.114,2.468,4.038h-1.84
	c-0.22-1.075-0.674-1.858-1.363-2.35c-0.688-0.491-1.558-0.736-2.605-0.736c-1.244,0-2.291,0.511-3.143,1.533
	c-0.851,1.022-1.274,2.545-1.274,4.569c0,1.75,0.351,3.174,1.053,4.271c0.701,1.1,1.845,1.648,3.433,1.648
	c1.213,0,2.219-0.387,3.016-1.157c0.796-0.771,1.203-2.019,1.223-3.741h-4.296V23.49h6.022v7.875h-1.194l-0.448-1.894
	c-0.619,0.741-1.167,1.257-1.645,1.543c-0.803,0.494-1.822,0.741-3.061,0.741c-1.599,0-2.974-0.564-4.125-1.693
	c-1.255-1.416-1.883-3.359-1.883-5.83c0-2.464,0.613-4.426,1.841-5.881c1.166-1.389,2.677-2.084,4.528-2.084
	C39.893,16.267,40.99,16.534,41.917,17.068z"/>
</svg>
