<?xml version="1.0" encoding="utf-8"?>
<!-- Generator: Adobe Illustrator 16.0.0, SVG Export Plug-In . SVG Version: 6.00 Build 0)  -->
<!DOCTYPE svg PUBLIC "-//W3C//DTD SVG 1.1//EN" "http://www.w3.org/Graphics/SVG/1.1/DTD/svg11.dtd">
<svg version="1.1" id="Layer_1" xmlns="http://www.w3.org/2000/svg" xmlns:xlink="http://www.w3.org/1999/xlink" x="0px" y="0px"
	 width="48px" height="48px" viewBox="0 0 48 48" enable-background="new 0 0 48 48" xml:space="preserve">
<g>
	<path fill="#FFFFFF" d="M25.178,5.153H11.044v37.693h25.913V15.755c0-4.857-9.424-1.178-9.424-1.178
		C28.711,9.865,27.533,5.153,25.178,5.153z"/>
	<path fill="#333333" d="M28.711,2.797H11.044H8.688v2.356v37.693v2.355h2.356h25.913h2.355v-2.355v-28.27v-2.356L28.711,2.797z
		 M36.957,42.847H11.044V5.153h14.133c2.355,0,3.533,4.712,2.355,9.423c0,0,9.424-3.679,9.424,1.178V42.847z"/>
</g>
<path fill="#333333" stroke="#333333" stroke-miterlimit="10" d="M34.849,26.273v1.117h-3.491v8.257h-1.419v-8.257h-3.491v-1.117
	H34.849z"/>
<rect x="13.416" y="20.689" fill="#333333" stroke="#333333" stroke-miterlimit="10" width="10.941" height="20.543"/>
<path fill="#FFFFFF" stroke="#FFFFFF" stroke-miterlimit="10" d="M22.115,26.986c0.712,0.621,1.107,1.327,1.185,2.117h-1.359
	c-0.152-0.599-0.452-1.074-0.905-1.426c-0.452-0.353-1.084-0.526-1.902-0.526c-0.995,0-1.799,0.321-2.412,0.968
	c-0.612,0.644-0.919,1.632-0.919,2.965c0,1.092,0.277,1.977,0.829,2.655c0.553,0.68,1.379,1.018,2.475,1.018
	c1.008,0,1.779-0.356,2.305-1.071c0.281-0.376,0.488-0.869,0.626-1.483h1.36c-0.12,0.98-0.517,1.803-1.193,2.466
	c-0.807,0.799-1.896,1.198-3.268,1.198c-1.181,0-2.174-0.327-2.978-0.984c-1.058-0.865-1.586-2.203-1.586-4.012
	c0-1.375,0.397-2.501,1.19-3.382c0.859-0.956,2.042-1.434,3.552-1.434C20.406,26.055,21.405,26.365,22.115,26.986z"/>
</svg>
