<?xml version="1.0" encoding="utf-8"?>
<!-- Generator: Adobe Illustrator 22.0.1, SVG Export Plug-In . SVG Version: 6.00 Build 0)  -->
<svg version="1.1" id="Layer_1" xmlns="http://www.w3.org/2000/svg" xmlns:xlink="http://www.w3.org/1999/xlink" x="0px" y="0px"
	 viewBox="33.5 339.5 48 48" enable-background="new 33.5 339.5 48 48" xml:space="preserve">
<g>
	<g>
		<path fill="none" stroke="#333333" stroke-width="2" stroke-linejoin="round" stroke-miterlimit="10" d="M38.378,359.986h2.732
			c2.838,0,7.34-8.786,7.957-9.962c0.877-1.676,3.696-4.627,6.298-0.56c0.051,0.08,0.097,0.165,0.135,0.251
			c1.606,3.653,5.491,10.298,7.659,10.272l2.27,0"/>
		<path fill="none" stroke="#333333" stroke-width="2" stroke-linejoin="round" stroke-miterlimit="10" d="M49.566,377.072h2.732
			c2.838,0,7.34-8.786,7.957-9.962c0.877-1.676,3.696-4.627,6.298-0.56c0.051,0.08,0.097,0.165,0.135,0.251
			c1.606,3.653,5.491,10.298,7.659,10.272l2.27,0"/>
	</g>
	<g>
		<g>
			<line fill="none" stroke="#333333" stroke-width="2" stroke-miterlimit="10" x1="48.16" y1="377.072" x2="43.832" y2="377.121"/>
			<g>
				<polygon fill="#333333" points="37.76,377.189 46.277,373.597 44.286,377.116 46.355,380.588 				"/>
			</g>
		</g>
	</g>
	<g>
		<g>
			<line fill="none" stroke="#333333" stroke-width="2" stroke-miterlimit="10" x1="66.84" y1="359.928" x2="71.168" y2="359.976"/>
			<g>
				<polygon fill="#333333" points="77.24,360.045 68.645,363.444 70.714,359.971 68.723,356.453 				"/>
			</g>
		</g>
	</g>
</g>
</svg>
