<?xml version="1.0" encoding="utf-8"?>
<!-- Generator: Adobe Illustrator 22.0.1, SVG Export Plug-In . SVG Version: 6.00 Build 0)  -->
<svg version="1.1" id="Layer_1" xmlns="http://www.w3.org/2000/svg" xmlns:xlink="http://www.w3.org/1999/xlink" x="0px" y="0px"
	 viewBox="0 0 48 48" style="enable-background:new 0 0 48 48;" xml:space="preserve">
<style type="text/css">
	.st0{fill:none;stroke:#333333;stroke-width:2;stroke-miterlimit:10;}
</style>
<g>
	<path class="st0" d="M31,17.1c6.7,0,12.2,5.5,12.2,12.2S37.7,41.5,31,41.5S18.8,36,18.8,29.3S24.3,17.1,31,17.1z"/>
	<path class="st0" d="M13.3,6.3c4.4,0,7.9,3.5,7.9,7.9s-3.5,7.9-7.9,7.9s-7.9-3.5-7.9-7.9S8.9,6.3,13.3,6.3z"/>
	<path class="st0" d="M10.7,29.9c3.2,0,5.9,2.6,5.9,5.9c0,3.2-2.6,5.9-5.9,5.9c-3.2,0-5.9-2.6-5.9-5.9C4.8,32.6,7.4,29.9,10.7,29.9z
		"/>
	<polyline class="st0" points="34.9,24 27.4,24 30.8,29.4 27.4,34.7 34.9,34.7 	"/>
</g>
</svg>
