<?xml version="1.0" encoding="utf-8"?>
<!-- Generator: Adobe Illustrator 22.0.1, SVG Export Plug-In . SVG Version: 6.00 Build 0)  -->
<svg version="1.1" id="Layer_1" xmlns="http://www.w3.org/2000/svg" xmlns:xlink="http://www.w3.org/1999/xlink" x="0px" y="0px"
	 viewBox="0 0 48 48" style="enable-background:new 0 0 48 48;" xml:space="preserve">
<style type="text/css">
	.st0{fill:#333333;}
</style>
<g>
	<g>
		<path class="st0" d="M23.4,19.2c0-2.3-1.8-4.2-4.2-4.3C17,14.9,15,16.7,15,19c0,2.3,1.8,4.2,4.2,4.3
			C21.5,23.3,23.4,21.5,23.4,19.2z"/>
	</g>
	<g>
		<path class="st0" d="M23.4,29c0-2.3-1.8-4.2-4.2-4.3c-2.3,0-4.2,1.8-4.3,4.2c0,2.3,1.8,4.2,4.2,4.3C21.5,33.1,23.4,31.3,23.4,29z"
			/>
	</g>
	<g>
		<path class="st0" d="M32.7,29c0-2.3-1.8-4.2-4.2-4.3c-2.3,0-4.2,1.8-4.3,4.2c0,2.3,1.8,4.2,4.2,4.3C30.7,33.1,32.6,31.3,32.7,29z"
			/>
	</g>
	<g>
		<path class="st0" d="M21.7,38.1c0-1.4-1.1-2.5-2.5-2.5c-1.4,0-2.5,1.1-2.5,2.5c0,1.4,1.1,2.5,2.5,2.5
			C20.6,40.6,21.7,39.5,21.7,38.1z"/>
	</g>
	<g>
		<path class="st0" d="M30,38.1c0-0.8-0.6-1.4-1.4-1.5c-0.8,0-1.4,0.6-1.5,1.4c0,0.8,0.6,1.4,1.4,1.5C29.3,39.5,30,38.9,30,38.1z"/>
	</g>
	<g>
		<path class="st0" d="M31.1,9.9c0-1.4-1.1-2.5-2.5-2.5c-1.4,0-2.5,1.1-2.5,2.5c0,1.4,1.1,2.5,2.5,2.5C29.9,12.4,31,11.3,31.1,9.9z"
			/>
	</g>
	<g>
		<path class="st0" d="M11.5,28.9c0-0.8-0.6-1.4-1.4-1.5c-0.8,0-1.4,0.6-1.5,1.4c0,0.8,0.6,1.4,1.4,1.5
			C10.9,30.3,11.5,29.7,11.5,28.9z"/>
	</g>
	<g>
		<path class="st0" d="M12.6,19.1c0-1.4-1.1-2.5-2.5-2.5c-1.4,0-2.5,1.1-2.5,2.5c0,1.4,1.1,2.5,2.5,2.5
			C11.5,21.6,12.6,20.5,12.6,19.1z"/>
	</g>
	<g>
		<path class="st0" d="M40.4,28.9c0-1.4-1.1-2.5-2.5-2.5c-1.4,0-2.5,1.1-2.5,2.5c0,1.4,1.1,2.5,2.5,2.5
			C39.2,31.4,40.4,30.3,40.4,28.9z"/>
	</g>
	<g>
		<path class="st0" d="M39.3,19.1c0-0.8-0.6-1.4-1.4-1.5c-0.8,0-1.4,0.6-1.5,1.4c0,0.8,0.6,1.4,1.4,1.5
			C38.7,20.5,39.3,19.9,39.3,19.1z"/>
	</g>
	<g>
		<path class="st0" d="M20.7,9.9c0-0.8-0.6-1.4-1.4-1.5c-0.8,0-1.4,0.6-1.5,1.4c0,0.8,0.6,1.4,1.4,1.5C20,11.3,20.6,10.7,20.7,9.9z"
			/>
	</g>
	<g>
		<path class="st0" d="M31.1,19.1c0-1.4-1.1-2.5-2.5-2.5c-1.4,0-2.5,1.1-2.5,2.5c0,1.4,1.1,2.5,2.5,2.5C29.9,21.6,31,20.5,31.1,19.1
			z"/>
	</g>
</g>
</svg>
