<?xml version="1.0" encoding="utf-8"?>
<!-- Generator: Adobe Illustrator 16.0.0, SVG Export Plug-In . SVG Version: 6.00 Build 0)  -->
<!DOCTYPE svg PUBLIC "-//W3C//DTD SVG 1.1//EN" "http://www.w3.org/Graphics/SVG/1.1/DTD/svg11.dtd">
<svg version="1.1" id="Layer_1" xmlns="http://www.w3.org/2000/svg" xmlns:xlink="http://www.w3.org/1999/xlink" x="0px" y="0px"
	 width="48px" height="48px" viewBox="0 0 48 48" enable-background="new 0 0 48 48" xml:space="preserve">
<rect x="15.231" y="11.918" fill="#5B5B5B" width="25.886" height="1.164"/>
<rect x="11.5" y="19.957" fill="#333333" width="17.717" height="7.086"/>
<rect x="16.858" y="32.084" fill="#BAB9B9" width="7.249" height="4.832"/>
<rect x="15.231" y="9.75" fill="#5B5B5B" width="11.001" height="5.501"/>
<g>
	<path fill="#333333" d="M3.705,36.055c0,0.34,0.055,0.621,0.164,0.844c0.203,0.41,0.57,0.615,1.105,0.615
		c0.326,0,0.612-0.111,0.855-0.336c0.243-0.226,0.365-0.549,0.365-0.971c0-0.559-0.227-0.932-0.678-1.119
		C5.26,34.982,4.855,34.93,4.303,34.93v-1.195c0.54-0.008,0.918-0.061,1.133-0.157c0.369-0.164,0.555-0.496,0.555-0.996
		c0-0.324-0.096-0.588-0.283-0.791c-0.189-0.203-0.455-0.306-0.798-0.306c-0.394,0-0.683,0.125-0.868,0.375
		s-0.273,0.584-0.266,1.002h-1.56c0.017-0.422,0.089-0.821,0.216-1.2c0.137-0.332,0.353-0.64,0.645-0.92
		c0.219-0.199,0.479-0.353,0.777-0.457c0.301-0.104,0.67-0.158,1.106-0.158c0.812,0,1.466,0.21,1.964,0.63s0.746,0.982,0.746,1.689
		c0,0.5-0.148,0.923-0.445,1.267c-0.188,0.216-0.383,0.361-0.586,0.438c0.152,0,0.371,0.132,0.656,0.394
		c0.426,0.396,0.639,0.935,0.639,1.617c0,0.719-0.248,1.351-0.746,1.896c-0.496,0.545-1.232,0.816-2.209,0.816
		c-1.201,0-2.037-0.393-2.504-1.178c-0.246-0.418-0.383-0.965-0.41-1.641H3.705L3.705,36.055z"/>
</g>
<g>
	<path fill="#333333" d="M2.482,15.099C2.72,14.532,3.283,13.933,4.17,13.3c0.77-0.551,1.268-0.945,1.494-1.184
		c0.349-0.371,0.521-0.777,0.521-1.22c0-0.358-0.1-0.657-0.299-0.896S5.402,9.644,5.031,9.644c-0.508,0-0.854,0.189-1.037,0.568
		c-0.105,0.219-0.168,0.565-0.188,1.043H2.183c0.027-0.723,0.158-1.307,0.393-1.752c0.446-0.848,1.237-1.271,2.375-1.271
		c0.899,0,1.614,0.249,2.146,0.747s0.799,1.157,0.799,1.978c0,0.629-0.188,1.188-0.563,1.676c-0.247,0.324-0.651,0.687-1.215,1.084
		l-0.669,0.476c-0.418,0.298-0.705,0.513-0.859,0.646c-0.154,0.133-0.284,0.287-0.39,0.463h3.709v1.469H2.09
		C2.105,16.159,2.236,15.603,2.482,15.099z"/>
</g>
<g>
	<path fill="#333333" d="M3.145,21.888v-1.137c0.526-0.023,0.894-0.059,1.104-0.105c0.335-0.073,0.608-0.223,0.818-0.444
		c0.144-0.151,0.253-0.354,0.327-0.608c0.043-0.152,0.064-0.267,0.064-0.341h1.396v8.496H5.143v-5.86H3.145z"/>
</g>
<rect x="33.75" y="19.957" fill="#333333" width="11.75" height="7.086"/>
<rect x="27.941" y="9.75" fill="#5B5B5B" width="2.522" height="5.5"/>
<rect x="32.502" y="9.75" fill="#5B5B5B" width="1.262" height="5.5"/>
<rect x="35.44" y="9.75" fill="#5B5B5B" width="5.676" height="5.5"/>
<rect x="32.502" y="9.75" fill="#5B5B5B" width="1.262" height="5.5"/>
<rect x="26.615" y="32.084" fill="#BAB9B9" width="7.249" height="4.832"/>
<rect x="35.015" y="32.084" fill="#BAB9B9" width="4.819" height="4.832"/>
<rect x="11.5" y="22.75" fill="#333333" width="33.348" height="1.5"/>
<rect x="16.858" y="33.989" fill="#BAB9B9" width="22.741" height="1.022"/>
</svg>
