<?xml version="1.0" encoding="utf-8"?>
<!-- Generator: Adobe Illustrator 16.0.0, SVG Export Plug-In . SVG Version: 6.00 Build 0)  -->
<!DOCTYPE svg PUBLIC "-//W3C//DTD SVG 1.1//EN" "http://www.w3.org/Graphics/SVG/1.1/DTD/svg11.dtd">
<svg version="1.1" id="Layer_1" xmlns="http://www.w3.org/2000/svg" xmlns:xlink="http://www.w3.org/1999/xlink" x="0px" y="0px"
	 width="48px" height="48px" viewBox="0 0 48 48" enable-background="new 0 0 48 48" xml:space="preserve">
<g>
	<path fill="none" d="M20.067,19.982c-1.96,5.229-3.342,12.308-12.156,12.778H21.5V15.986
		C20.916,16.962,20.549,18.697,20.067,19.982z"/>
	<g>
		<path fill="#B2B2B2" d="M34.589,19.421C33.111,15.833,32.042,13.24,30,13.24c-2.041,0-2.99,2.533-4.305,6.04
			C23.457,25.249,23.109,31.32,12,30.76v2c3,0,1.675,0,3.411,0c8.814-0.47,10.196-7.549,12.156-12.777
			c0.481-1.285,0.849-3.021,1.433-3.996c0.274-0.458,0.597-0.75,1-0.746c0.363,0.004,0.691,0.317,1,0.804
			c0.645,1.02,1.191,2.807,1.74,4.139C35.188,26.119,37,32.76,48,32.76v-2.013C40,30.76,37.57,26.656,34.589,19.421z"/>
		<path fill="#666666" d="M28.089,19.421c-1.478-3.588-2.547-6.181-4.589-6.181c-2.041,0-2.99,2.533-4.305,6.04
			C16.957,25.249,16.609,31.32,5.5,30.76v2c3,0,1.675,0,3.411,0c8.814-0.47,10.196-7.549,12.156-12.777
			c0.482-1.285,0.849-3.021,1.433-3.996c0.274-0.458,0.597-0.75,1-0.746c0.363,0.004,0.691,0.317,1,0.804
			c0.645,1.02,1.191,2.807,1.74,4.139C28.688,26.119,30.5,32.76,41.5,32.76v-2.013C33.5,30.76,31.07,26.656,28.089,19.421z"/>
		<path fill="#333333" d="M22.589,19.421C21.111,15.833,20.042,13.24,18,13.24c-2.041,0-2.99,2.533-4.305,6.04
			C11.457,25.249,11.109,31.32,0,30.76v2c3,0,1.675,0,3.411,0c8.814-0.47,10.196-7.549,12.156-12.777
			c0.482-1.285,0.849-3.021,1.433-3.996c0.274-0.458,0.596-0.75,1-0.746c0.363,0.004,0.691,0.317,1,0.804
			c0.645,1.02,1.191,2.807,1.74,4.139C23.188,26.119,25,32.76,36,32.76v-2.013C28,30.76,25.57,26.656,22.589,19.421z"/>
	</g>
</g>
</svg>
