<?xml version="1.0" encoding="utf-8"?>
<!-- Generator: Adobe Illustrator 22.0.1, SVG Export Plug-In . SVG Version: 6.00 Build 0)  -->
<svg version="1.1" id="Layer_1" xmlns="http://www.w3.org/2000/svg" xmlns:xlink="http://www.w3.org/1999/xlink" x="0px" y="0px"
	 viewBox="-102.5 339.5 48 48" enable-background="new -102.5 339.5 48 48" xml:space="preserve">
<g>
	<g>
		<path fill="none" stroke="#333333" stroke-width="2" stroke-linecap="round" stroke-linejoin="round" stroke-miterlimit="10" d="
			M-62.315,366.085v-5.16h-2.874c-0.347-1.806-1.048-3.485-2.035-4.959l2.011-1.996l-3.685-3.648l-1.973,1.967
			c-1.489-1.015-3.191-1.737-5.024-2.094v-2.76h-5.208v2.76c-1.834,0.357-3.536,1.08-5.025,2.095l-1.982-1.967l-3.675,3.648
			l2.011,1.996c-0.987,1.474-1.688,3.153-2.035,4.959h-2.874v5.16h2.876c0.349,1.805,1.05,3.482,2.038,4.955l-2.014,2l3.675,3.648
			l1.987-1.973c1.488,1.013,3.188,1.734,5.019,2.091v2.76h5.208v-2.76c1.831-0.356,3.531-1.077,5.018-2.09l1.978,1.972l3.685-3.648
			l-2.014-2c0.987-1.473,1.689-3.151,2.038-4.955H-62.315z"/>
		<polygon fill="#333333" points="-90.229,356.453 -90.92,356.382 -90.645,355.935 		"/>
	</g>
	<path fill="none" stroke="#333333" stroke-width="2" stroke-miterlimit="10" d="M-78.501,356.837c3.681,0,6.665,2.984,6.665,6.664
		c0,3.68-2.983,6.663-6.665,6.663c-3.678,0-6.662-2.982-6.662-6.663C-85.163,359.82-82.18,356.837-78.501,356.837z"/>
</g>
</svg>
