<?xml version="1.0" encoding="UTF-8"?>
<svg id="Layer_1" data-name="Layer 1" xmlns="http://www.w3.org/2000/svg" version="1.1" viewBox="0 0 48 48">
  <defs>
    <style>
      .cls-1 {
        fill: #333;
      }

      .cls-1, .cls-2, .cls-3 {
        stroke-width: 0px;
      }

      .cls-2 {
        fill: #b2b2b2;
      }

      .cls-3 {
        fill: #626262;
      }
    </style>
  </defs>
  <circle class="cls-3" cx="20.6" cy="24.2" r="2"/>
  <circle class="cls-1" cx="24.8" cy="11.9" r="3"/>
  <circle class="cls-1" cx="20.1" cy="17.9" r="3"/>
  <circle class="cls-1" cx="27.8" cy="19.2" r="3"/>
  <circle class="cls-1" cx="32.2" cy="12.6" r="3"/>
  <circle class="cls-1" cx="32.8" cy="25.2" r="3"/>
  <polygon class="cls-2" points="8 40 8 6 6 6 6 40 6 40 6 42 6 42 8 42 42 42 42 40 8 40"/>
  <circle class="cls-3" cx="22.1" cy="29.6" r="2"/>
  <circle class="cls-2" cx="12.8" cy="28.3" r="1.5"/>
  <circle class="cls-2" cx="17.6" cy="33.1" r="1.5"/>
  <circle class="cls-3" cx="27" cy="30.6" r="2"/>
  <circle class="cls-3" cx="25.8" cy="25.7" r="2"/>
  <circle class="cls-2" cx="22.1" cy="34.1" r="1.5"/>
  <circle class="cls-2" cx="13.4" cy="32.4" r="1.5"/>
  <circle class="cls-2" cx="14.9" cy="36.7" r="1.5"/>
  <circle class="cls-3" cx="15.5" cy="23.7" r="2"/>
</svg>