<?xml version="1.0" encoding="utf-8"?>
<!-- Generator: Adobe Illustrator 22.0.1, SVG Export Plug-In . SVG Version: 6.00 Build 0)  -->
<svg version="1.1" id="Layer_1" xmlns="http://www.w3.org/2000/svg" xmlns:xlink="http://www.w3.org/1999/xlink" x="0px" y="0px"
	 viewBox="0 0 48 48" style="enable-background:new 0 0 48 48;" xml:space="preserve">
<style type="text/css">
	.st0{fill:#CEF585;}
	.st1{fill:#F0F0F0;}
	.st2{fill:#EFCFB0;}
	.st3{fill:#F2D9C0;}
	.st4{fill:#F5E2D0;}
	.st5{fill:#BBE2E2;}
	.st6{fill:#A4D8D8;}
	.st7{fill:#8DCECE;}
</style>
<g>
	<rect x="6" y="6" class="st0" width="9" height="9"/>
	<rect x="6" y="6" class="st1" width="9" height="9"/>
	<rect x="6" y="33" class="st2" width="9" height="9"/>
	<rect x="6" y="24" class="st3" width="9" height="9"/>
	<rect x="6" y="15" class="st4" width="9" height="9"/>
	<rect x="15" y="6" class="st0" width="9" height="9"/>
	<rect x="15" y="6" class="st5" width="9" height="9"/>
	<rect x="15" y="33" class="st3" width="9" height="9"/>
	<rect x="15" y="24" class="st4" width="9" height="9"/>
	<rect x="15" y="15" class="st1" width="9" height="9"/>
	<rect x="24" y="6" class="st0" width="9" height="9"/>
	<rect x="24" y="6" class="st6" width="9" height="9"/>
	<rect x="24" y="33" class="st4" width="9" height="9"/>
	<rect x="24" y="24" class="st1" width="9" height="9"/>
	<rect x="24" y="15" class="st5" width="9" height="9"/>
	<rect x="33" y="6" class="st0" width="9" height="9"/>
	<rect x="33" y="6" class="st7" width="9" height="9"/>
	<rect x="33" y="33" class="st1" width="9" height="9"/>
	<rect x="33" y="24" class="st5" width="9" height="9"/>
	<rect x="33" y="15" class="st6" width="9" height="9"/>
</g>
</svg>
