<?xml version="1.0" encoding="utf-8"?>
<!-- Generator: Adobe Illustrator 22.0.1, SVG Export Plug-In . SVG Version: 6.00 Build 0)  -->
<svg version="1.1" id="Layer_1" xmlns="http://www.w3.org/2000/svg" xmlns:xlink="http://www.w3.org/1999/xlink" x="0px" y="0px"
	 viewBox="0 0 48 48" style="enable-background:new 0 0 48 48;" xml:space="preserve">
<style type="text/css">
	.st0{fill:#8DCECE;}
	.st1{fill:#EFCFB0;}
	.st2{fill:#B2B2B2;}
</style>
<g>
	<g>
		<path class="st0" d="M29.4,19.9c-2.2-1-4.8,0.1-5.8,2.3c-1,2.2,0.1,4.8,2.3,5.8c2.2,1,4.8-0.1,5.8-2.3
			C32.7,23.5,31.7,20.9,29.4,19.9z"/>
	</g>
	<g>
		<path class="st0" d="M34.4,29.6c-2.2-1-4.8,0.1-5.8,2.3c-1,2.2,0.1,4.8,2.3,5.8c2.2,1,4.8-0.1,5.8-2.3
			C37.7,33.2,36.7,30.6,34.4,29.6z"/>
	</g>
	<g>
		<path class="st0" d="M34.4,10.3c-2.2-1-4.8,0.1-5.8,2.3c-1,2.2,0.1,4.8,2.3,5.8c2.2,1,4.8-0.1,5.8-2.3
			C37.7,13.9,36.7,11.3,34.4,10.3z"/>
	</g>
	<g>
		<path class="st0" d="M39.8,19.9C37.6,19,35,20,34,22.3c-1,2.2,0.1,4.8,2.3,5.8c2.2,1,4.8-0.1,5.8-2.3
			C43.1,23.5,42.1,20.9,39.8,19.9z"/>
	</g>
	<g>
		<path class="st1" d="M17.4,29.6c-2.2-1-4.8,0.1-5.8,2.3c-1,2.2,0.1,4.8,2.3,5.8c2.2,1,4.8-0.1,5.8-2.3
			C20.7,33.2,19.7,30.6,17.4,29.6z"/>
	</g>
	<g>
		<path class="st1" d="M17.4,10.3c-2.2-1-4.8,0.1-5.8,2.3c-1,2.2,0.1,4.8,2.3,5.8c2.2,1,4.8-0.1,5.8-2.3
			C20.7,13.9,19.7,11.3,17.4,10.3z"/>
	</g>
	<g>
		<path class="st1" d="M12.3,19.9c-2.2-1-4.8,0.1-5.8,2.3c-1,2.2,0.1,4.8,2.3,5.8c2.2,1,4.8-0.1,5.8-2.3
			C15.6,23.5,14.6,20.9,12.3,19.9z"/>
	</g>
	<g>
		<path class="st2" d="M5.5,30.4"/>
	</g>
</g>
</svg>
