<?xml version="1.0" encoding="utf-8"?>
<!-- Generator: Adobe Illustrator 22.0.1, SVG Export Plug-In . SVG Version: 6.00 Build 0)  -->
<svg version="1.1" id="Layer_1" xmlns="http://www.w3.org/2000/svg" xmlns:xlink="http://www.w3.org/1999/xlink" x="0px" y="0px"
	 viewBox="0 0 48 48" style="enable-background:new 0 0 48 48;" xml:space="preserve">
<style type="text/css">
	.st0{fill:#B2B2B2;}
	.st1{fill:none;stroke:#666666;stroke-miterlimit:10;stroke-dasharray:1.5163,1.5163;}
	.st2{fill:#333333;}
</style>
<g>
	<g>
		<path class="st0" d="M34.1,29.6c-2.2-1-4.8,0.1-5.8,2.3c-1,2.2,0.1,4.8,2.3,5.8c2.2,1,4.8-0.1,5.8-2.3
			C37.4,33.2,36.4,30.6,34.1,29.6z"/>
	</g>
	<g>
		<path class="st0" d="M34.1,10.3c-2.2-1-4.8,0.1-5.8,2.3c-1,2.2,0.1,4.8,2.3,5.8c2.2,1,4.8-0.1,5.8-2.3
			C37.4,13.9,36.4,11.3,34.1,10.3z"/>
	</g>
	<g>
		<g>
			<path class="st1" d="M28.6,20.5c-2-0.8-4.2,0.1-5.1,2c-0.8,2,0.1,4.2,2,5.1c2,0.8,4.2-0.1,5.1-2C31.5,23.6,30.6,21.3,28.6,20.5z"
				/>
		</g>
	</g>
	<g>
		<path class="st0" d="M39.5,19.9c-2.2-1-4.8,0.1-5.8,2.3c-1.2,2.8,0.7,6.2,4.2,6.2c1,0,2.1-0.4,2.8-1.1
			C43.2,24.9,42.3,21.1,39.5,19.9z"/>
	</g>
	<g>
		<path class="st2" d="M17.1,29.6c-2.2-1-4.8,0.1-5.8,2.3c-1,2.2,0.1,4.8,2.3,5.8c2.2,1,4.8-0.1,5.8-2.3
			C20.4,33.2,19.4,30.6,17.1,29.6z"/>
	</g>
	<g>
		<path class="st2" d="M17.1,10.3c-2.2-1-4.8,0.1-5.8,2.3c-1,2.2,0.1,4.8,2.3,5.8c2.2,1,4.8-0.1,5.8-2.3
			C20.4,13.9,19.4,11.3,17.1,10.3z"/>
	</g>
	<g>
		<path class="st2" d="M12,19.9c-2.2-1-4.8,0.1-5.8,2.3c-1,2.2,0.1,4.8,2.3,5.8c2.2,1,4.8-0.1,5.8-2.3C15.3,23.5,14.2,20.9,12,19.9z
			"/>
	</g>
</g>
</svg>
