<?xml version="1.0" encoding="utf-8"?>
<!-- Generator: Adobe Illustrator 22.0.1, SVG Export Plug-In . SVG Version: 6.00 Build 0)  -->
<svg version="1.1" id="Layer_1" xmlns="http://www.w3.org/2000/svg" xmlns:xlink="http://www.w3.org/1999/xlink" x="0px" y="0px"
	 viewBox="0 0 48 48" style="enable-background:new 0 0 48 48;" xml:space="preserve">
<style type="text/css">
	.st0{fill:#B2B2B2;}
	.st1{fill:none;stroke:#666666;stroke-miterlimit:10;stroke-dasharray:1.4436,1.4436;}
	.st2{fill:#333333;}
</style>
<g>
	<g>
		<path class="st0" d="M36,30.7c-2.7-1.1-5.8,0.1-6.9,2.7c-1.1,2.7,0.1,5.8,2.8,6.9c2.7,1.1,5.8-0.1,6.9-2.7
			C39.9,34.9,38.7,31.8,36,30.7z"/>
	</g>
	<g>
		<path class="st0" d="M36,7.7c-2.7-1.1-5.8,0.1-6.9,2.7c-1.1,2.7,0.1,5.8,2.8,6.9c2.7,1.1,5.8-0.1,6.9-2.7
			C39.9,11.9,38.7,8.8,36,7.7z"/>
	</g>
	<g>
		<g>
			<path class="st1" d="M29.5,19.8c-2.3-1-5,0.1-6.1,2.4c-1,2.3,0.1,5,2.4,6s5-0.1,6-2.4C32.9,23.5,31.8,20.8,29.5,19.8z"/>
		</g>
	</g>
	<g>
		<path class="st0" d="M42.4,19.2c-2.7-1.1-5.8,0.1-6.9,2.7c-1.4,3.3,0.8,7.3,5,7.4c1.2,0,2.4-0.5,3.3-1.3
			C46.9,25.1,45.8,20.6,42.4,19.2z"/>
	</g>
	<g>
		<path class="st2" d="M15.8,30.7c-2.7-1.1-5.8,0.1-6.9,2.7c-1.1,2.7,0.1,5.8,2.8,6.9c2.7,1.1,5.8-0.1,6.9-2.7
			C19.7,34.9,18.5,31.8,15.8,30.7z"/>
	</g>
	<g>
		<path class="st2" d="M15.8,7.7c-2.7-1.1-5.8,0.1-6.9,2.7c-1.1,2.7,0.1,5.8,2.8,6.9c2.7,1.1,5.8-0.1,6.9-2.7
			C19.7,11.9,18.5,8.8,15.8,7.7z"/>
	</g>
	<g>
		<path class="st2" d="M9.7,19.2C7.1,18,4,19.3,2.8,21.9c-1.1,2.7,0.1,5.8,2.8,6.9c2.7,1.1,5.8-0.1,6.9-2.7
			C13.6,23.4,12.4,20.3,9.7,19.2z"/>
	</g>
</g>
</svg>
